PathFileType	4	(X/Y/Z)	./resultDataOpenSim/trcMotMarkerGrf/sub06/qtm-01-03.trc
DataRate	CameraRate	NumFrames	NumMarkers	Units	OrigDataRate	OrigDataStartFrame	OrigNumFrames
250.000000	250.000000	9	24	m	250.000000	65	512
Frame#	Time	L.Toe.Tip			R.Toe.Tip			L.Ankle.Lat			R.Ankle.Lat			L.Ankle.Med			R.Ankle.Med			L.Heel			R.Heel			L.Knee.Lat			R.Knee.Lat			L.Knee.Med			R.Knee.Med			L.Thigh.Upper			R.Thigh.Upper			L.ASIS			R.ASIS			V.Sacral			L.Acromium			R.Acromium			C7			L.Elbow			R.Elbow			L.Wrist.Lat			R.Wrist.Lat
		X1	Y1	Z1	X2	Y2	Z2	X3	Y3	Z3	X4	Y4	Z4	X5	Y5	Z5	X6	Y6	Z6	X7	Y7	Z7	X8	Y8	Z8	X9	Y9	Z9	X10	Y10	Z10	X11	Y11	Z11	X12	Y12	Z12	X13	Y13	Z13	X14	Y14	Z14	X15	Y15	Z15	X16	Y16	Z16	X17	Y17	Z17	X18	Y18	Z18	X19	Y19	Z19	X20	Y20	Z20	X21	Y21	Z21	X22	Y22	Z22	X23	Y23	Z23	X24	Y24	Z24

65	0.256	-1.3243494	0.076453741	-0.090111947	-0.74646195	0.035540888	0.053964959	-1.3214349	0.20861921	-0.1158976	-0.88040283	0.060581694	0.077052547	-1.2988953	0.20954357	-0.035401002	-0.86375235	0.080874658	-0.0096800953	-1.3624425	0.264586	-0.061994815	-0.93747022	0.038045705	0.014975528	-0.98796095	0.38184172	-0.1619873	-0.81703805	0.44281278	0.11571121	-0.97438415	0.36629491	-0.042190243	-0.85989785	0.43238389	-0.0074820292	-1.01454	0.77320259	-0.14970541	-0.95103664	0.79126908	0.18904098	-0.93295467	0.8234636	-0.12040269	-0.8802816	0.84263113	0.11806287	-1.0873901	0.90882875	0.037685217	-0.97448204	1.3187799	-0.15706004	-0.96327605	1.290679	0.20621561	-1.0448118	1.3479438	0.028879961	-1.0027485	0.99717274	-0.21777885	-1.0612257	0.99150374	0.25635944	-0.82769552	0.82350154	-0.2112442	-0.96569802	0.77599883	0.30543506
66	0.26	-1.3086895	0.076692963	-0.090698204	-0.74659037	0.035554311	0.054124631	-1.3078971	0.20880781	-0.1161034	-0.88062775	0.060587445	0.077208288	-1.2843841	0.2103823	-0.036045758	-0.86378217	0.080988174	-0.0094771952	-1.3501018	0.2641984	-0.062034525	-0.93751074	0.03813263	0.015042427	-0.97594382	0.38361529	-0.16228933	-0.81523131	0.44262634	0.11626921	-0.96266099	0.36833409	-0.04219826	-0.85804897	0.43239328	-0.0069700307	-1.0082499	0.7747864	-0.14946058	-0.94758514	0.79205433	0.1893281	-0.92703713	0.82503946	-0.11994971	-0.87475788	0.84379199	0.11905854	-1.0847878	0.91110847	0.03695786	-0.96937403	1.3203758	-0.15680498	-0.95744389	1.2923899	0.20640227	-1.0392254	1.3493998	0.029202479	-0.99830399	0.99897453	-0.21707131	-1.0534022	0.99259046	0.25757585	-0.82485123	0.82413479	-0.21182045	-0.95585973	0.77809619	0.30588423
67	0.264	-1.2928764	0.076762649	-0.091332211	-0.74670232	0.035562021	0.054287048	-1.2943503	0.20877607	-0.11630175	-0.88080097	0.060596479	0.077372366	-1.2699489	0.21093095	-0.036634206	-0.86379934	0.081119474	-0.0092756686	-1.3377306	0.26358537	-0.06233238	-0.93753747	0.038230948	0.015118787	-0.96398927	0.385515	-0.16249983	-0.81354518	0.44245239	0.11680005	-0.95111973	0.37041834	-0.041987339	-0.85627505	0.43245856	-0.0065231501	-1.0019474	0.77643715	-0.14916225	-0.94436418	0.79275703	0.18953522	-0.92093132	0.82673158	-0.11944283	-0.869061	0.84501955	0.12012803	-1.0810594	0.91309354	0.036501285	-0.96427347	1.3220074	-0.15655461	-0.95162805	1.2941418	0.20657891	-1.0336395	1.3508785	0.029512315	-0.99408576	1.0008588	-0.21658029	-1.0457533	0.99375247	0.25864617	-0.82196447	0.82484416	-0.21237793	-0.94599321	0.78027644	0.30628493
68	0.268	-1.2769416	0.076668005	-0.091986333	-0.74679525	0.035564726	0.054441095	-1.2808629	0.2085403	-0.11645612	-0.88091755	0.060605918	0.077545156	-1.2560078	0.21112988	-0.037018718	-0.86381024	0.081265868	-0.009080113	-1.3252876	0.26266628	-0.06258777	-0.93755417	0.038339165	0.015199819	-0.95215038	0.38753533	-0.16262156	-0.81197396	0.44229022	0.11730485	-0.93956831	0.37247913	-0.041673955	-0.8545337	0.43258973	-0.0061424363	-0.99563338	0.77814334	-0.14879919	-0.9406027	0.79353164	0.18985793	-0.91457955	0.82852722	-0.11887401	-0.86317101	0.84629207	0.12127113	-1.0759885	0.914725	0.036413083	-0.95916732	1.3236733	-0.15630825	-0.94580979	1.2959232	0.20673714	-1.028048	1.3523768	0.029808665	-0.98995032	1.0027987	-0.21613617	-1.0383271	0.99499152	0.25955186	-0.81903734	0.82562253	-0.21292252	-0.93609791	0.78253326	0.30663679
69	0.272	-1.2608914	0.076419044	-0.092647137	-0.74687073	0.03556549	0.054577706	-1.2673811	0.20810398	-0.11658959	-0.88099066	0.060615354	0.07772264	-1.2423538	0.21102444	-0.037265384	-0.86382595	0.081418541	-0.0088956639	-1.3127803	0.26146136	-0.062711225	-0.93756809	0.038456055	0.015287503	-0.94040799	0.38966289	-0.1626603	-0.81051194	0.44213908	0.11778473	-0.92782147	0.37454141	-0.041413724	-0.85278248	0.43278731	-0.0058012148	-0.98931817	0.77990021	-0.14842302	-0.93589488	0.79445647	0.19043163	-0.9081293	0.83037117	-0.11828106	-0.85734208	0.84757017	0.12243862	-1.0702261	0.91617073	0.036522603	-0.95404582	1.3253689	-0.15606396	-0.93997858	1.2977263	0.20687302	-1.0224482	1.3538988	0.030096782	-0.98581131	1.0047739	-0.21565963	-1.0310659	0.99630082	0.26038133	-0.81610799	0.82645954	-0.21347694	-0.92617474	0.78486075	0.30693813
70	0.276	-1.2446943	0.076028869	-0.093328846	-0.74693344	0.035566522	0.054692356	-1.2538142	0.2074697	-0.1167365	-0.88104027	0.060623502	0.077892971	-1.2286931	0.21067378	-0.037472268	-0.86385127	0.081567991	-0.0087261407	-1.3001622	0.25997425	-0.062791318	-0.9375862	0.038579116	0.015384293	-0.92870784	0.39188351	-0.16263691	-0.80915342	0.44199824	0.11824081	-0.91585827	0.37666913	-0.041252533	-0.85103125	0.43303625	-0.0054556471	-0.98300922	0.78170579	-0.14810497	-0.93047394	0.79549374	0.19121308	-0.90178868	0.83220863	-0.11771401	-0.85206094	0.84880745	0.12352534	-1.0643418	0.91757995	0.036660031	-0.9489062	1.3270855	-0.15581889	-0.9341385	1.2995427	0.20698774	-1.016839	1.3554477	0.030386012	-0.98166723	1.0067731	-0.21516194	-1.0238975	0.99765955	0.26121353	-0.81319879	0.82734887	-0.2140562	-0.91624169	0.78725001	0.30718509
71	0.28	-1.2282855	0.075510546	-0.094078409	-0.7469878	0.035568748	0.05478303	-1.2400928	0.20663996	-0.11690843	-0.88108404	0.060630293	0.078045711	-1.2149161	0.21012067	-0.037680832	-0.86388091	0.081712005	-0.0085698724	-1.2873661	0.25817557	-0.062938044	-0.93761233	0.038705157	0.015487293	-0.91700848	0.39418827	-0.16257284	-0.80789266	0.44186697	0.11867422	-0.90377595	0.37890025	-0.041130712	-0.84934909	0.43330894	-0.005079424	-0.9766956	0.78355093	-0.14785338	-0.92503093	0.7965514	0.19199112	-0.89562529	0.83402269	-0.11718843	-0.84759904	0.84998348	0.12445402	-1.0584999	0.91899553	0.036756737	-0.94375041	1.3288105	-0.15557094	-0.92829737	1.3013617	0.20708005	-1.0112225	1.3570106	0.030683093	-0.97754848	1.0087896	-0.21467736	-1.0167565	0.99902844	0.26206115	-0.81030028	0.82829001	-0.21465715	-0.90632168	0.78969528	0.3073764
72	0.284	-1.2115835	0.074885029	-0.094955038	-0.74703575	0.035573193	0.054849551	-1.2261984	0.20561875	-0.11709618	-0.88113251	0.060640377	0.078179751	-1.2010309	0.20939607	-0.037900482	-0.86390815	0.081857212	-0.0084212313	-1.2744273	0.25609366	-0.063118814	-0.93764637	0.038831818	0.015590357	-0.90531901	0.39657012	-0.16246436	-0.80672394	0.44174453	0.11908608	-0.89166507	0.38124948	-0.040985635	-0.84778797	0.43358328	-0.0046793432	-0.97034332	0.78541993	-0.14760499	-0.92032354	0.79753992	0.19251471	-0.88957274	0.83582565	-0.11668856	-0.84358492	0.85114009	0.12527304	-1.0526581	0.9203977	0.036798322	-0.93858314	1.3305323	-0.1553217	-0.92245457	1.303177	0.20714822	-1.0056077	1.3585628	0.030986723	-0.97347625	1.0108178	-0.21422644	-1.0095788	1.0003701	0.26289167	-0.80739859	0.82927971	-0.21527222	-0.89640331	0.79218999	0.30751184
73	0.288	-1.1945373	0.074185694	-0.095978485	-0.74707946	0.035580087	0.054894491	-1.2121491	0.20441277	-0.11728712	-0.88118874	0.060659942	0.078298629	-1.1870607	0.20850677	-0.038131366	-0.86393358	0.082012762	-0.0082749318	-1.2614522	0.25380531	-0.063210162	-0.93768615	0.038955911	0.015689373	-0.89367214	0.39902114	-0.16229502	-0.80564155	0.44163019	0.11947752	-0.87957458	0.38372603	-0.0407913	-0.84638935	0.4338475	-0.0042858159	-0.9639208	0.787295	-0.14730628	-0.9165694	0.79842816	0.19271655	-0.88354691	0.83763598	-0.11619014	-0.83934461	0.8523518	0.12609967	-1.0467728	0.92175134	0.036774057	-0.93341001	1.3322468	-0.15507482	-0.91659015	1.3049869	0.20719702	-1.0000048	1.3600872	0.031289205	-0.96945488	1.0128517	-0.21381579	-1.0023341	1.0016803	0.26368117	-0.80450162	0.83030501	-0.21590137	-0.88645263	0.79472044	0.30759112
